<mxfile host="app.diagrams.net" modified="2021-05-13T06:04:38.438Z" agent="5.0 (Windows NT 10.0; Win64; x64) AppleWebKit/537.36 (KHTML, like Gecko) Chrome/90.0.4430.93 Safari/537.36 Edg/90.0.818.56" etag="Cy7Q5AjscSFGhEPDRltU" version="14.6.12" type="github">
  <diagram id="aKoEFq5MimV6yi8-sIxx" name="第 1 页">
    <mxGraphModel dx="1944" dy="1176" grid="0" gridSize="10" guides="1" tooltips="1" connect="1" arrows="1" fold="1" page="1" pageScale="1" pageWidth="1600" pageHeight="900" math="0" shadow="0">
      <root>
        <mxCell id="0" />
        <mxCell id="1" parent="0" />
        <mxCell id="tOSa2ApwYLOff3yiY6L2-303" value="" style="group;rotation=0;" vertex="1" connectable="0" parent="1">
          <mxGeometry x="122" y="230" width="400" height="440" as="geometry" />
        </mxCell>
        <mxCell id="tOSa2ApwYLOff3yiY6L2-235" value="" style="group;fillColor=#60a917;strokeColor=#2D7600;fontColor=#ffffff;rotation=0;" vertex="1" connectable="0" parent="tOSa2ApwYLOff3yiY6L2-303">
          <mxGeometry width="400" height="400" as="geometry" />
        </mxCell>
        <mxCell id="tOSa2ApwYLOff3yiY6L2-203" value="" style="group;fillColor=#fff2cc;strokeColor=#d6b656;rotation=0;" vertex="1" connectable="0" parent="tOSa2ApwYLOff3yiY6L2-235">
          <mxGeometry width="400" height="80" as="geometry" />
        </mxCell>
        <mxCell id="tOSa2ApwYLOff3yiY6L2-198" value="" style="whiteSpace=wrap;html=1;aspect=fixed;fillColor=#60a917;strokeColor=#2D7600;fontColor=#ffffff;rotation=0;" vertex="1" parent="tOSa2ApwYLOff3yiY6L2-203">
          <mxGeometry width="80" height="80" as="geometry" />
        </mxCell>
        <mxCell id="tOSa2ApwYLOff3yiY6L2-199" value="" style="whiteSpace=wrap;html=1;aspect=fixed;fillColor=#60a917;strokeColor=#2D7600;fontColor=#ffffff;rotation=0;" vertex="1" parent="tOSa2ApwYLOff3yiY6L2-203">
          <mxGeometry x="80" width="80" height="80" as="geometry" />
        </mxCell>
        <mxCell id="tOSa2ApwYLOff3yiY6L2-200" value="" style="whiteSpace=wrap;html=1;aspect=fixed;fillColor=#60a917;strokeColor=#2D7600;fontColor=#ffffff;rotation=0;" vertex="1" parent="tOSa2ApwYLOff3yiY6L2-203">
          <mxGeometry x="160" width="80" height="80" as="geometry" />
        </mxCell>
        <mxCell id="tOSa2ApwYLOff3yiY6L2-201" value="" style="whiteSpace=wrap;html=1;aspect=fixed;fillColor=#fff2cc;strokeColor=#d6b656;rotation=0;" vertex="1" parent="tOSa2ApwYLOff3yiY6L2-203">
          <mxGeometry x="240" width="80" height="80" as="geometry" />
        </mxCell>
        <mxCell id="tOSa2ApwYLOff3yiY6L2-202" value="" style="whiteSpace=wrap;html=1;aspect=fixed;fillColor=#fff2cc;strokeColor=#d6b656;rotation=0;" vertex="1" parent="tOSa2ApwYLOff3yiY6L2-203">
          <mxGeometry x="320" width="80" height="80" as="geometry" />
        </mxCell>
        <mxCell id="tOSa2ApwYLOff3yiY6L2-211" value="" style="group;fillColor=#fff2cc;strokeColor=#d6b656;rotation=0;" vertex="1" connectable="0" parent="tOSa2ApwYLOff3yiY6L2-235">
          <mxGeometry y="80" width="400" height="80" as="geometry" />
        </mxCell>
        <mxCell id="tOSa2ApwYLOff3yiY6L2-212" value="" style="whiteSpace=wrap;html=1;aspect=fixed;fillColor=#60a917;strokeColor=#2D7600;fontColor=#ffffff;rotation=0;" vertex="1" parent="tOSa2ApwYLOff3yiY6L2-211">
          <mxGeometry width="80" height="80" as="geometry" />
        </mxCell>
        <mxCell id="tOSa2ApwYLOff3yiY6L2-213" value="" style="whiteSpace=wrap;html=1;aspect=fixed;fillColor=#60a917;strokeColor=#2D7600;fontColor=#ffffff;rotation=0;" vertex="1" parent="tOSa2ApwYLOff3yiY6L2-211">
          <mxGeometry x="80" width="80" height="80" as="geometry" />
        </mxCell>
        <mxCell id="tOSa2ApwYLOff3yiY6L2-214" value="" style="whiteSpace=wrap;html=1;aspect=fixed;fillColor=#60a917;strokeColor=#2D7600;fontColor=#ffffff;rotation=0;" vertex="1" parent="tOSa2ApwYLOff3yiY6L2-211">
          <mxGeometry x="160" width="80" height="80" as="geometry" />
        </mxCell>
        <mxCell id="tOSa2ApwYLOff3yiY6L2-215" value="" style="whiteSpace=wrap;html=1;aspect=fixed;fillColor=#fff2cc;strokeColor=#d6b656;rotation=0;" vertex="1" parent="tOSa2ApwYLOff3yiY6L2-211">
          <mxGeometry x="240" width="80" height="80" as="geometry" />
        </mxCell>
        <mxCell id="tOSa2ApwYLOff3yiY6L2-216" value="" style="whiteSpace=wrap;html=1;aspect=fixed;fillColor=#fff2cc;strokeColor=#d6b656;rotation=0;" vertex="1" parent="tOSa2ApwYLOff3yiY6L2-211">
          <mxGeometry x="320" width="80" height="80" as="geometry" />
        </mxCell>
        <mxCell id="tOSa2ApwYLOff3yiY6L2-217" value="" style="group;fillColor=#fff2cc;strokeColor=#d6b656;rotation=0;" vertex="1" connectable="0" parent="tOSa2ApwYLOff3yiY6L2-235">
          <mxGeometry y="160" width="400" height="80" as="geometry" />
        </mxCell>
        <mxCell id="tOSa2ApwYLOff3yiY6L2-218" value="" style="whiteSpace=wrap;html=1;aspect=fixed;fillColor=#60a917;strokeColor=#2D7600;fontColor=#ffffff;rotation=0;" vertex="1" parent="tOSa2ApwYLOff3yiY6L2-217">
          <mxGeometry width="80" height="80" as="geometry" />
        </mxCell>
        <mxCell id="tOSa2ApwYLOff3yiY6L2-219" value="" style="whiteSpace=wrap;html=1;aspect=fixed;fillColor=#60a917;strokeColor=#2D7600;fontColor=#ffffff;rotation=0;" vertex="1" parent="tOSa2ApwYLOff3yiY6L2-217">
          <mxGeometry x="80" width="80" height="80" as="geometry" />
        </mxCell>
        <mxCell id="tOSa2ApwYLOff3yiY6L2-220" value="" style="whiteSpace=wrap;html=1;aspect=fixed;fillColor=#60a917;strokeColor=#2D7600;fontColor=#ffffff;rotation=0;" vertex="1" parent="tOSa2ApwYLOff3yiY6L2-217">
          <mxGeometry x="160" width="80" height="80" as="geometry" />
        </mxCell>
        <mxCell id="tOSa2ApwYLOff3yiY6L2-221" value="" style="whiteSpace=wrap;html=1;aspect=fixed;fillColor=#fff2cc;strokeColor=#d6b656;rotation=0;" vertex="1" parent="tOSa2ApwYLOff3yiY6L2-217">
          <mxGeometry x="240" width="80" height="80" as="geometry" />
        </mxCell>
        <mxCell id="tOSa2ApwYLOff3yiY6L2-222" value="" style="whiteSpace=wrap;html=1;aspect=fixed;fillColor=#fff2cc;strokeColor=#d6b656;rotation=0;" vertex="1" parent="tOSa2ApwYLOff3yiY6L2-217">
          <mxGeometry x="320" width="80" height="80" as="geometry" />
        </mxCell>
        <mxCell id="tOSa2ApwYLOff3yiY6L2-223" value="" style="group;fillColor=#fff2cc;strokeColor=#d6b656;rotation=0;" vertex="1" connectable="0" parent="tOSa2ApwYLOff3yiY6L2-235">
          <mxGeometry y="240" width="400" height="80" as="geometry" />
        </mxCell>
        <mxCell id="tOSa2ApwYLOff3yiY6L2-224" value="" style="whiteSpace=wrap;html=1;aspect=fixed;fillColor=#fff2cc;strokeColor=#d6b656;rotation=0;" vertex="1" parent="tOSa2ApwYLOff3yiY6L2-223">
          <mxGeometry width="80" height="80" as="geometry" />
        </mxCell>
        <mxCell id="tOSa2ApwYLOff3yiY6L2-225" value="" style="whiteSpace=wrap;html=1;aspect=fixed;fillColor=#fff2cc;strokeColor=#d6b656;rotation=0;" vertex="1" parent="tOSa2ApwYLOff3yiY6L2-223">
          <mxGeometry x="80" width="80" height="80" as="geometry" />
        </mxCell>
        <mxCell id="tOSa2ApwYLOff3yiY6L2-226" value="" style="whiteSpace=wrap;html=1;aspect=fixed;fillColor=#fff2cc;strokeColor=#d6b656;rotation=0;" vertex="1" parent="tOSa2ApwYLOff3yiY6L2-223">
          <mxGeometry x="160" width="80" height="80" as="geometry" />
        </mxCell>
        <mxCell id="tOSa2ApwYLOff3yiY6L2-227" value="" style="whiteSpace=wrap;html=1;aspect=fixed;fillColor=#fff2cc;strokeColor=#d6b656;rotation=0;" vertex="1" parent="tOSa2ApwYLOff3yiY6L2-223">
          <mxGeometry x="240" width="80" height="80" as="geometry" />
        </mxCell>
        <mxCell id="tOSa2ApwYLOff3yiY6L2-228" value="" style="whiteSpace=wrap;html=1;aspect=fixed;fillColor=#fff2cc;strokeColor=#d6b656;rotation=0;" vertex="1" parent="tOSa2ApwYLOff3yiY6L2-223">
          <mxGeometry x="320" width="80" height="80" as="geometry" />
        </mxCell>
        <mxCell id="tOSa2ApwYLOff3yiY6L2-229" value="" style="group;fillColor=#fff2cc;strokeColor=#d6b656;rotation=0;" vertex="1" connectable="0" parent="tOSa2ApwYLOff3yiY6L2-235">
          <mxGeometry y="320" width="400" height="80" as="geometry" />
        </mxCell>
        <mxCell id="tOSa2ApwYLOff3yiY6L2-230" value="" style="whiteSpace=wrap;html=1;aspect=fixed;fillColor=#fff2cc;strokeColor=#d6b656;rotation=0;" vertex="1" parent="tOSa2ApwYLOff3yiY6L2-229">
          <mxGeometry width="80" height="80" as="geometry" />
        </mxCell>
        <mxCell id="tOSa2ApwYLOff3yiY6L2-231" value="" style="whiteSpace=wrap;html=1;aspect=fixed;fillColor=#fff2cc;strokeColor=#d6b656;rotation=0;" vertex="1" parent="tOSa2ApwYLOff3yiY6L2-229">
          <mxGeometry x="80" width="80" height="80" as="geometry" />
        </mxCell>
        <mxCell id="tOSa2ApwYLOff3yiY6L2-232" value="" style="whiteSpace=wrap;html=1;aspect=fixed;fillColor=#fff2cc;strokeColor=#d6b656;rotation=0;" vertex="1" parent="tOSa2ApwYLOff3yiY6L2-229">
          <mxGeometry x="160" width="80" height="80" as="geometry" />
        </mxCell>
        <mxCell id="tOSa2ApwYLOff3yiY6L2-233" value="" style="whiteSpace=wrap;html=1;aspect=fixed;fillColor=#fff2cc;strokeColor=#d6b656;rotation=0;" vertex="1" parent="tOSa2ApwYLOff3yiY6L2-229">
          <mxGeometry x="240" width="80" height="80" as="geometry" />
        </mxCell>
        <mxCell id="tOSa2ApwYLOff3yiY6L2-234" value="" style="whiteSpace=wrap;html=1;aspect=fixed;fillColor=#fff2cc;strokeColor=#d6b656;rotation=0;" vertex="1" parent="tOSa2ApwYLOff3yiY6L2-229">
          <mxGeometry x="320" width="80" height="80" as="geometry" />
        </mxCell>
        <mxCell id="tOSa2ApwYLOff3yiY6L2-302" value="&lt;font style=&quot;font-size: 30px&quot;&gt;&lt;b&gt;Layer&amp;nbsp; 1&lt;/b&gt;&lt;/font&gt;" style="text;html=1;strokeColor=none;fillColor=none;align=center;verticalAlign=middle;whiteSpace=wrap;rounded=0;rotation=0;" vertex="1" parent="tOSa2ApwYLOff3yiY6L2-303">
          <mxGeometry x="131.5" y="420" width="137" height="20" as="geometry" />
        </mxCell>
        <mxCell id="tOSa2ApwYLOff3yiY6L2-305" value="" style="group" vertex="1" connectable="0" parent="1">
          <mxGeometry x="599" y="230" width="400" height="440" as="geometry" />
        </mxCell>
        <mxCell id="tOSa2ApwYLOff3yiY6L2-236" value="" style="group;fillColor=#fff2cc;strokeColor=#d6b656;" vertex="1" connectable="0" parent="tOSa2ApwYLOff3yiY6L2-305">
          <mxGeometry width="400" height="400" as="geometry" />
        </mxCell>
        <mxCell id="tOSa2ApwYLOff3yiY6L2-237" value="" style="group" vertex="1" connectable="0" parent="tOSa2ApwYLOff3yiY6L2-236">
          <mxGeometry width="400" height="80" as="geometry" />
        </mxCell>
        <mxCell id="tOSa2ApwYLOff3yiY6L2-238" value="" style="whiteSpace=wrap;html=1;aspect=fixed;" vertex="1" parent="tOSa2ApwYLOff3yiY6L2-237">
          <mxGeometry width="80" height="80" as="geometry" />
        </mxCell>
        <mxCell id="tOSa2ApwYLOff3yiY6L2-239" value="" style="whiteSpace=wrap;html=1;aspect=fixed;" vertex="1" parent="tOSa2ApwYLOff3yiY6L2-237">
          <mxGeometry x="80" width="80" height="80" as="geometry" />
        </mxCell>
        <mxCell id="tOSa2ApwYLOff3yiY6L2-240" value="" style="whiteSpace=wrap;html=1;aspect=fixed;" vertex="1" parent="tOSa2ApwYLOff3yiY6L2-237">
          <mxGeometry x="160" width="80" height="80" as="geometry" />
        </mxCell>
        <mxCell id="tOSa2ApwYLOff3yiY6L2-241" value="" style="whiteSpace=wrap;html=1;aspect=fixed;" vertex="1" parent="tOSa2ApwYLOff3yiY6L2-237">
          <mxGeometry x="240" width="80" height="80" as="geometry" />
        </mxCell>
        <mxCell id="tOSa2ApwYLOff3yiY6L2-242" value="" style="whiteSpace=wrap;html=1;aspect=fixed;" vertex="1" parent="tOSa2ApwYLOff3yiY6L2-237">
          <mxGeometry x="320" width="80" height="80" as="geometry" />
        </mxCell>
        <mxCell id="tOSa2ApwYLOff3yiY6L2-243" value="" style="group;fillColor=#fff2cc;strokeColor=#d6b656;" vertex="1" connectable="0" parent="tOSa2ApwYLOff3yiY6L2-236">
          <mxGeometry y="80" width="400" height="80" as="geometry" />
        </mxCell>
        <mxCell id="tOSa2ApwYLOff3yiY6L2-244" value="" style="whiteSpace=wrap;html=1;aspect=fixed;" vertex="1" parent="tOSa2ApwYLOff3yiY6L2-243">
          <mxGeometry width="80" height="80" as="geometry" />
        </mxCell>
        <mxCell id="tOSa2ApwYLOff3yiY6L2-245" value="" style="whiteSpace=wrap;html=1;aspect=fixed;fillColor=#60a917;strokeColor=#2D7600;fontColor=#ffffff;" vertex="1" parent="tOSa2ApwYLOff3yiY6L2-243">
          <mxGeometry x="80" width="80" height="80" as="geometry" />
        </mxCell>
        <mxCell id="tOSa2ApwYLOff3yiY6L2-246" value="" style="whiteSpace=wrap;html=1;aspect=fixed;fillColor=#fff2cc;strokeColor=#d6b656;" vertex="1" parent="tOSa2ApwYLOff3yiY6L2-243">
          <mxGeometry x="160" width="80" height="80" as="geometry" />
        </mxCell>
        <mxCell id="tOSa2ApwYLOff3yiY6L2-247" value="" style="whiteSpace=wrap;html=1;aspect=fixed;fillColor=#fff2cc;strokeColor=#d6b656;" vertex="1" parent="tOSa2ApwYLOff3yiY6L2-243">
          <mxGeometry x="240" width="80" height="80" as="geometry" />
        </mxCell>
        <mxCell id="tOSa2ApwYLOff3yiY6L2-248" value="" style="whiteSpace=wrap;html=1;aspect=fixed;" vertex="1" parent="tOSa2ApwYLOff3yiY6L2-243">
          <mxGeometry x="320" width="80" height="80" as="geometry" />
        </mxCell>
        <mxCell id="tOSa2ApwYLOff3yiY6L2-249" value="" style="group;fillColor=#fff2cc;strokeColor=#d6b656;" vertex="1" connectable="0" parent="tOSa2ApwYLOff3yiY6L2-236">
          <mxGeometry y="160" width="400" height="80" as="geometry" />
        </mxCell>
        <mxCell id="tOSa2ApwYLOff3yiY6L2-250" value="" style="whiteSpace=wrap;html=1;aspect=fixed;" vertex="1" parent="tOSa2ApwYLOff3yiY6L2-249">
          <mxGeometry width="80" height="80" as="geometry" />
        </mxCell>
        <mxCell id="tOSa2ApwYLOff3yiY6L2-251" value="" style="whiteSpace=wrap;html=1;aspect=fixed;fillColor=#fff2cc;strokeColor=#d6b656;" vertex="1" parent="tOSa2ApwYLOff3yiY6L2-249">
          <mxGeometry x="80" width="80" height="80" as="geometry" />
        </mxCell>
        <mxCell id="tOSa2ApwYLOff3yiY6L2-252" value="" style="whiteSpace=wrap;html=1;aspect=fixed;fillColor=#fff2cc;strokeColor=#d6b656;" vertex="1" parent="tOSa2ApwYLOff3yiY6L2-249">
          <mxGeometry x="160" width="80" height="80" as="geometry" />
        </mxCell>
        <mxCell id="tOSa2ApwYLOff3yiY6L2-253" value="" style="whiteSpace=wrap;html=1;aspect=fixed;fillColor=#fff2cc;strokeColor=#d6b656;" vertex="1" parent="tOSa2ApwYLOff3yiY6L2-249">
          <mxGeometry x="240" width="80" height="80" as="geometry" />
        </mxCell>
        <mxCell id="tOSa2ApwYLOff3yiY6L2-254" value="" style="whiteSpace=wrap;html=1;aspect=fixed;" vertex="1" parent="tOSa2ApwYLOff3yiY6L2-249">
          <mxGeometry x="320" width="80" height="80" as="geometry" />
        </mxCell>
        <mxCell id="tOSa2ApwYLOff3yiY6L2-255" value="" style="group" vertex="1" connectable="0" parent="tOSa2ApwYLOff3yiY6L2-236">
          <mxGeometry y="240" width="400" height="80" as="geometry" />
        </mxCell>
        <mxCell id="tOSa2ApwYLOff3yiY6L2-256" value="" style="whiteSpace=wrap;html=1;aspect=fixed;" vertex="1" parent="tOSa2ApwYLOff3yiY6L2-255">
          <mxGeometry width="80" height="80" as="geometry" />
        </mxCell>
        <mxCell id="tOSa2ApwYLOff3yiY6L2-257" value="" style="whiteSpace=wrap;html=1;aspect=fixed;fillColor=#fff2cc;strokeColor=#d6b656;" vertex="1" parent="tOSa2ApwYLOff3yiY6L2-255">
          <mxGeometry x="80" width="80" height="80" as="geometry" />
        </mxCell>
        <mxCell id="tOSa2ApwYLOff3yiY6L2-258" value="" style="whiteSpace=wrap;html=1;aspect=fixed;fillColor=#fff2cc;strokeColor=#d6b656;" vertex="1" parent="tOSa2ApwYLOff3yiY6L2-255">
          <mxGeometry x="160" width="80" height="80" as="geometry" />
        </mxCell>
        <mxCell id="tOSa2ApwYLOff3yiY6L2-259" value="" style="whiteSpace=wrap;html=1;aspect=fixed;fillColor=#fff2cc;strokeColor=#d6b656;" vertex="1" parent="tOSa2ApwYLOff3yiY6L2-255">
          <mxGeometry x="240" width="80" height="80" as="geometry" />
        </mxCell>
        <mxCell id="tOSa2ApwYLOff3yiY6L2-260" value="" style="whiteSpace=wrap;html=1;aspect=fixed;" vertex="1" parent="tOSa2ApwYLOff3yiY6L2-255">
          <mxGeometry x="320" width="80" height="80" as="geometry" />
        </mxCell>
        <mxCell id="tOSa2ApwYLOff3yiY6L2-261" value="" style="group" vertex="1" connectable="0" parent="tOSa2ApwYLOff3yiY6L2-236">
          <mxGeometry y="320" width="400" height="80" as="geometry" />
        </mxCell>
        <mxCell id="tOSa2ApwYLOff3yiY6L2-262" value="" style="whiteSpace=wrap;html=1;aspect=fixed;" vertex="1" parent="tOSa2ApwYLOff3yiY6L2-261">
          <mxGeometry width="80" height="80" as="geometry" />
        </mxCell>
        <mxCell id="tOSa2ApwYLOff3yiY6L2-263" value="" style="whiteSpace=wrap;html=1;aspect=fixed;" vertex="1" parent="tOSa2ApwYLOff3yiY6L2-261">
          <mxGeometry x="80" width="80" height="80" as="geometry" />
        </mxCell>
        <mxCell id="tOSa2ApwYLOff3yiY6L2-264" value="" style="whiteSpace=wrap;html=1;aspect=fixed;" vertex="1" parent="tOSa2ApwYLOff3yiY6L2-261">
          <mxGeometry x="160" width="80" height="80" as="geometry" />
        </mxCell>
        <mxCell id="tOSa2ApwYLOff3yiY6L2-265" value="" style="whiteSpace=wrap;html=1;aspect=fixed;" vertex="1" parent="tOSa2ApwYLOff3yiY6L2-261">
          <mxGeometry x="240" width="80" height="80" as="geometry" />
        </mxCell>
        <mxCell id="tOSa2ApwYLOff3yiY6L2-266" value="" style="whiteSpace=wrap;html=1;aspect=fixed;" vertex="1" parent="tOSa2ApwYLOff3yiY6L2-261">
          <mxGeometry x="320" width="80" height="80" as="geometry" />
        </mxCell>
        <mxCell id="tOSa2ApwYLOff3yiY6L2-299" value="&lt;font style=&quot;font-size: 30px&quot;&gt;&lt;b&gt;Layer&amp;nbsp; 2&lt;/b&gt;&lt;/font&gt;" style="text;html=1;strokeColor=none;fillColor=none;align=center;verticalAlign=middle;whiteSpace=wrap;rounded=0;" vertex="1" parent="tOSa2ApwYLOff3yiY6L2-305">
          <mxGeometry x="131.5" y="420" width="137" height="20" as="geometry" />
        </mxCell>
        <mxCell id="tOSa2ApwYLOff3yiY6L2-306" value="" style="group" vertex="1" connectable="0" parent="1">
          <mxGeometry x="1079" y="230" width="400" height="440" as="geometry" />
        </mxCell>
        <mxCell id="tOSa2ApwYLOff3yiY6L2-268" value="" style="group;fillColor=#fff2cc;strokeColor=#d6b656;" vertex="1" connectable="0" parent="tOSa2ApwYLOff3yiY6L2-306">
          <mxGeometry width="400" height="400" as="geometry" />
        </mxCell>
        <mxCell id="tOSa2ApwYLOff3yiY6L2-269" value="" style="group" vertex="1" connectable="0" parent="tOSa2ApwYLOff3yiY6L2-268">
          <mxGeometry width="400" height="80" as="geometry" />
        </mxCell>
        <mxCell id="tOSa2ApwYLOff3yiY6L2-270" value="" style="whiteSpace=wrap;html=1;aspect=fixed;" vertex="1" parent="tOSa2ApwYLOff3yiY6L2-269">
          <mxGeometry width="80" height="80" as="geometry" />
        </mxCell>
        <mxCell id="tOSa2ApwYLOff3yiY6L2-271" value="" style="whiteSpace=wrap;html=1;aspect=fixed;" vertex="1" parent="tOSa2ApwYLOff3yiY6L2-269">
          <mxGeometry x="80" width="80" height="80" as="geometry" />
        </mxCell>
        <mxCell id="tOSa2ApwYLOff3yiY6L2-272" value="" style="whiteSpace=wrap;html=1;aspect=fixed;" vertex="1" parent="tOSa2ApwYLOff3yiY6L2-269">
          <mxGeometry x="160" width="80" height="80" as="geometry" />
        </mxCell>
        <mxCell id="tOSa2ApwYLOff3yiY6L2-273" value="" style="whiteSpace=wrap;html=1;aspect=fixed;" vertex="1" parent="tOSa2ApwYLOff3yiY6L2-269">
          <mxGeometry x="240" width="80" height="80" as="geometry" />
        </mxCell>
        <mxCell id="tOSa2ApwYLOff3yiY6L2-274" value="" style="whiteSpace=wrap;html=1;aspect=fixed;" vertex="1" parent="tOSa2ApwYLOff3yiY6L2-269">
          <mxGeometry x="320" width="80" height="80" as="geometry" />
        </mxCell>
        <mxCell id="tOSa2ApwYLOff3yiY6L2-275" value="" style="group;fillColor=#fff2cc;strokeColor=#d6b656;" vertex="1" connectable="0" parent="tOSa2ApwYLOff3yiY6L2-268">
          <mxGeometry y="80" width="400" height="80" as="geometry" />
        </mxCell>
        <mxCell id="tOSa2ApwYLOff3yiY6L2-276" value="" style="whiteSpace=wrap;html=1;aspect=fixed;" vertex="1" parent="tOSa2ApwYLOff3yiY6L2-275">
          <mxGeometry width="80" height="80" as="geometry" />
        </mxCell>
        <mxCell id="tOSa2ApwYLOff3yiY6L2-277" value="" style="whiteSpace=wrap;html=1;aspect=fixed;" vertex="1" parent="tOSa2ApwYLOff3yiY6L2-275">
          <mxGeometry x="80" width="80" height="80" as="geometry" />
        </mxCell>
        <mxCell id="tOSa2ApwYLOff3yiY6L2-278" value="" style="whiteSpace=wrap;html=1;aspect=fixed;" vertex="1" parent="tOSa2ApwYLOff3yiY6L2-275">
          <mxGeometry x="160" width="80" height="80" as="geometry" />
        </mxCell>
        <mxCell id="tOSa2ApwYLOff3yiY6L2-279" value="" style="whiteSpace=wrap;html=1;aspect=fixed;" vertex="1" parent="tOSa2ApwYLOff3yiY6L2-275">
          <mxGeometry x="240" width="80" height="80" as="geometry" />
        </mxCell>
        <mxCell id="tOSa2ApwYLOff3yiY6L2-280" value="" style="whiteSpace=wrap;html=1;aspect=fixed;" vertex="1" parent="tOSa2ApwYLOff3yiY6L2-275">
          <mxGeometry x="320" width="80" height="80" as="geometry" />
        </mxCell>
        <mxCell id="tOSa2ApwYLOff3yiY6L2-281" value="" style="group;fillColor=#fff2cc;strokeColor=#d6b656;" vertex="1" connectable="0" parent="tOSa2ApwYLOff3yiY6L2-268">
          <mxGeometry y="160" width="400" height="80" as="geometry" />
        </mxCell>
        <mxCell id="tOSa2ApwYLOff3yiY6L2-282" value="" style="whiteSpace=wrap;html=1;aspect=fixed;" vertex="1" parent="tOSa2ApwYLOff3yiY6L2-281">
          <mxGeometry width="80" height="80" as="geometry" />
        </mxCell>
        <mxCell id="tOSa2ApwYLOff3yiY6L2-283" value="" style="whiteSpace=wrap;html=1;aspect=fixed;" vertex="1" parent="tOSa2ApwYLOff3yiY6L2-281">
          <mxGeometry x="80" width="80" height="80" as="geometry" />
        </mxCell>
        <mxCell id="tOSa2ApwYLOff3yiY6L2-284" value="" style="whiteSpace=wrap;html=1;aspect=fixed;fillColor=#fff2cc;strokeColor=#d6b656;" vertex="1" parent="tOSa2ApwYLOff3yiY6L2-281">
          <mxGeometry x="160" width="80" height="80" as="geometry" />
        </mxCell>
        <mxCell id="tOSa2ApwYLOff3yiY6L2-285" value="" style="whiteSpace=wrap;html=1;aspect=fixed;" vertex="1" parent="tOSa2ApwYLOff3yiY6L2-281">
          <mxGeometry x="240" width="80" height="80" as="geometry" />
        </mxCell>
        <mxCell id="tOSa2ApwYLOff3yiY6L2-286" value="" style="whiteSpace=wrap;html=1;aspect=fixed;" vertex="1" parent="tOSa2ApwYLOff3yiY6L2-281">
          <mxGeometry x="320" width="80" height="80" as="geometry" />
        </mxCell>
        <mxCell id="tOSa2ApwYLOff3yiY6L2-287" value="" style="group" vertex="1" connectable="0" parent="tOSa2ApwYLOff3yiY6L2-268">
          <mxGeometry y="240" width="400" height="80" as="geometry" />
        </mxCell>
        <mxCell id="tOSa2ApwYLOff3yiY6L2-288" value="" style="whiteSpace=wrap;html=1;aspect=fixed;" vertex="1" parent="tOSa2ApwYLOff3yiY6L2-287">
          <mxGeometry width="80" height="80" as="geometry" />
        </mxCell>
        <mxCell id="tOSa2ApwYLOff3yiY6L2-289" value="" style="whiteSpace=wrap;html=1;aspect=fixed;" vertex="1" parent="tOSa2ApwYLOff3yiY6L2-287">
          <mxGeometry x="80" width="80" height="80" as="geometry" />
        </mxCell>
        <mxCell id="tOSa2ApwYLOff3yiY6L2-290" value="" style="whiteSpace=wrap;html=1;aspect=fixed;" vertex="1" parent="tOSa2ApwYLOff3yiY6L2-287">
          <mxGeometry x="160" width="80" height="80" as="geometry" />
        </mxCell>
        <mxCell id="tOSa2ApwYLOff3yiY6L2-291" value="" style="whiteSpace=wrap;html=1;aspect=fixed;" vertex="1" parent="tOSa2ApwYLOff3yiY6L2-287">
          <mxGeometry x="240" width="80" height="80" as="geometry" />
        </mxCell>
        <mxCell id="tOSa2ApwYLOff3yiY6L2-292" value="" style="whiteSpace=wrap;html=1;aspect=fixed;" vertex="1" parent="tOSa2ApwYLOff3yiY6L2-287">
          <mxGeometry x="320" width="80" height="80" as="geometry" />
        </mxCell>
        <mxCell id="tOSa2ApwYLOff3yiY6L2-293" value="" style="group" vertex="1" connectable="0" parent="tOSa2ApwYLOff3yiY6L2-268">
          <mxGeometry y="320" width="400" height="80" as="geometry" />
        </mxCell>
        <mxCell id="tOSa2ApwYLOff3yiY6L2-294" value="" style="whiteSpace=wrap;html=1;aspect=fixed;" vertex="1" parent="tOSa2ApwYLOff3yiY6L2-293">
          <mxGeometry width="80" height="80" as="geometry" />
        </mxCell>
        <mxCell id="tOSa2ApwYLOff3yiY6L2-295" value="" style="whiteSpace=wrap;html=1;aspect=fixed;" vertex="1" parent="tOSa2ApwYLOff3yiY6L2-293">
          <mxGeometry x="80" width="80" height="80" as="geometry" />
        </mxCell>
        <mxCell id="tOSa2ApwYLOff3yiY6L2-296" value="" style="whiteSpace=wrap;html=1;aspect=fixed;" vertex="1" parent="tOSa2ApwYLOff3yiY6L2-293">
          <mxGeometry x="160" width="80" height="80" as="geometry" />
        </mxCell>
        <mxCell id="tOSa2ApwYLOff3yiY6L2-297" value="" style="whiteSpace=wrap;html=1;aspect=fixed;" vertex="1" parent="tOSa2ApwYLOff3yiY6L2-293">
          <mxGeometry x="240" width="80" height="80" as="geometry" />
        </mxCell>
        <mxCell id="tOSa2ApwYLOff3yiY6L2-298" value="" style="whiteSpace=wrap;html=1;aspect=fixed;" vertex="1" parent="tOSa2ApwYLOff3yiY6L2-293">
          <mxGeometry x="320" width="80" height="80" as="geometry" />
        </mxCell>
        <mxCell id="tOSa2ApwYLOff3yiY6L2-304" value="&lt;font style=&quot;font-size: 30px&quot;&gt;&lt;b&gt;Layer&amp;nbsp; 3&lt;/b&gt;&lt;/font&gt;" style="text;html=1;strokeColor=none;fillColor=none;align=center;verticalAlign=middle;whiteSpace=wrap;rounded=0;" vertex="1" parent="tOSa2ApwYLOff3yiY6L2-306">
          <mxGeometry x="131.5" y="420" width="137" height="20" as="geometry" />
        </mxCell>
        <mxCell id="tOSa2ApwYLOff3yiY6L2-308" style="rounded=0;orthogonalLoop=1;jettySize=auto;html=1;exitX=1;exitY=0;exitDx=0;exitDy=0;entryX=1;entryY=0;entryDx=0;entryDy=0;dashed=1;strokeWidth=5;fillColor=#60a917;strokeColor=#2D7600;" edge="1" parent="1" source="tOSa2ApwYLOff3yiY6L2-200" target="tOSa2ApwYLOff3yiY6L2-244">
          <mxGeometry relative="1" as="geometry" />
        </mxCell>
        <mxCell id="tOSa2ApwYLOff3yiY6L2-309" style="edgeStyle=none;rounded=0;orthogonalLoop=1;jettySize=auto;html=1;exitX=0;exitY=1;exitDx=0;exitDy=0;entryX=1;entryY=0;entryDx=0;entryDy=0;dashed=1;strokeWidth=5;fillColor=#60a917;strokeColor=#2D7600;" edge="1" parent="1" source="tOSa2ApwYLOff3yiY6L2-221" target="tOSa2ApwYLOff3yiY6L2-250">
          <mxGeometry relative="1" as="geometry" />
        </mxCell>
        <mxCell id="tOSa2ApwYLOff3yiY6L2-310" style="edgeStyle=none;rounded=0;orthogonalLoop=1;jettySize=auto;html=1;exitX=1;exitY=0;exitDx=0;exitDy=0;entryX=1;entryY=1;entryDx=0;entryDy=0;dashed=1;strokeWidth=5;fillColor=#ffe6cc;strokeColor=#d79b00;" edge="1" parent="1" source="tOSa2ApwYLOff3yiY6L2-247" target="tOSa2ApwYLOff3yiY6L2-277">
          <mxGeometry relative="1" as="geometry" />
        </mxCell>
        <mxCell id="tOSa2ApwYLOff3yiY6L2-312" style="edgeStyle=none;rounded=0;orthogonalLoop=1;jettySize=auto;html=1;exitX=1;exitY=1;exitDx=0;exitDy=0;entryX=1;entryY=0;entryDx=0;entryDy=0;dashed=1;strokeWidth=5;fillColor=#ffe6cc;strokeColor=#d79b00;" edge="1" parent="1" source="tOSa2ApwYLOff3yiY6L2-259" target="tOSa2ApwYLOff3yiY6L2-289">
          <mxGeometry relative="1" as="geometry" />
        </mxCell>
      </root>
    </mxGraphModel>
  </diagram>
</mxfile>
